<svg xmlns="http://www.w3.org/2000/svg" viewBox="0 0 960 320" width="960" height="320">
  <defs>
    <style>
      @import url('https://fonts.googleapis.com/css2?family=Share+Tech+Mono&amp;display=swap');
    </style>
    <filter id="glow">
      <feGaussianBlur stdDeviation="4" result="blur"/>
      <feComposite in="SourceGraphic" in2="blur" operator="over"/>
    </filter>
    <filter id="softGlow">
      <feGaussianBlur stdDeviation="8" result="blur"/>
      <feComposite in="SourceGraphic" in2="blur" operator="over"/>
    </filter>
    <linearGradient id="fadeDown" x1="0" y1="0" x2="0" y2="1">
      <stop offset="0%" stop-color="#00ff41" stop-opacity="0"/>
      <stop offset="15%" stop-color="#00ff41" stop-opacity="0.15"/>
      <stop offset="50%" stop-color="#00ff41" stop-opacity="0.4"/>
      <stop offset="85%" stop-color="#00ff41" stop-opacity="0.15"/>
      <stop offset="100%" stop-color="#00ff41" stop-opacity="0"/>
    </linearGradient>
    <linearGradient id="titleGrad" x1="0" y1="0" x2="1" y2="0">
      <stop offset="0%" stop-color="#00ff41"/>
      <stop offset="50%" stop-color="#7dffb3"/>
      <stop offset="100%" stop-color="#00ff41"/>
    </linearGradient>
    <clipPath id="rounded">
      <rect width="960" height="320" rx="12" ry="12"/>
    </clipPath>
  </defs>

  <g clip-path="url(#rounded)">
    <!-- Background -->
    <rect width="960" height="320" fill="#0a0a0a"/>

    <!-- Subtle grid -->
    <g opacity="0.03" stroke="#00ff41" stroke-width="0.5">
      <line x1="0" y1="80" x2="960" y2="80"/>
      <line x1="0" y1="160" x2="960" y2="160"/>
      <line x1="0" y1="240" x2="960" y2="240"/>
      <line x1="120" y1="0" x2="120" y2="320"/>
      <line x1="240" y1="0" x2="240" y2="320"/>
      <line x1="360" y1="0" x2="360" y2="320"/>
      <line x1="480" y1="0" x2="480" y2="320"/>
      <line x1="600" y1="0" x2="600" y2="320"/>
      <line x1="720" y1="0" x2="720" y2="320"/>
      <line x1="840" y1="0" x2="840" y2="320"/>
    </g>

    <!-- Matrix rain columns - left side -->
    <g font-family="'Share Tech Mono', 'Courier New', monospace" font-size="13" fill="url(#fadeDown)">
      <!-- Column 1 -->
      <text x="32" y="20" opacity="0.3">ク</text>
      <text x="32" y="40" opacity="0.2">0</text>
      <text x="32" y="60" opacity="0.35">1</text>
      <text x="32" y="80" opacity="0.25">マ</text>
      <text x="32" y="100" opacity="0.4">g</text>
      <text x="32" y="120" opacity="0.3">i</text>
      <text x="32" y="140" opacity="0.2">t</text>
      <text x="32" y="160" opacity="0.15">&amp;</text>
      <text x="32" y="180" opacity="0.25">0</text>
      <text x="32" y="200" opacity="0.3">ヨ</text>
      <text x="32" y="220" opacity="0.2">1</text>
      <text x="32" y="240" opacity="0.35">c</text>
      <text x="32" y="260" opacity="0.15">0</text>
      <text x="32" y="280" opacity="0.25">リ</text>
      <text x="32" y="300" opacity="0.2">1</text>

      <!-- Column 2 -->
      <text x="68" y="30" opacity="0.2">1</text>
      <text x="68" y="50" opacity="0.35">ア</text>
      <text x="68" y="70" opacity="0.25">p</text>
      <text x="68" y="90" opacity="0.4">u</text>
      <text x="68" y="110" opacity="0.15">s</text>
      <text x="68" y="130" opacity="0.3">h</text>
      <text x="68" y="150" opacity="0.2">0</text>
      <text x="68" y="170" opacity="0.35">ネ</text>
      <text x="68" y="190" opacity="0.25">1</text>
      <text x="68" y="210" opacity="0.15">0</text>
      <text x="68" y="230" opacity="0.3">1</text>
      <text x="68" y="250" opacity="0.2">ム</text>
      <text x="68" y="270" opacity="0.35">0</text>
      <text x="68" y="290" opacity="0.25">1</text>

      <!-- Column 3 -->
      <text x="104" y="15" opacity="0.35">タ</text>
      <text x="104" y="35" opacity="0.2">0</text>
      <text x="104" y="55" opacity="0.3">1</text>
      <text x="104" y="75" opacity="0.25">ソ</text>
      <text x="104" y="95" opacity="0.15">0</text>
      <text x="104" y="115" opacity="0.4">A</text>
      <text x="104" y="135" opacity="0.3">I</text>
      <text x="104" y="155" opacity="0.2">0</text>
      <text x="104" y="175" opacity="0.35">1</text>
      <text x="104" y="195" opacity="0.25">ラ</text>
      <text x="104" y="215" opacity="0.15">0</text>
      <text x="104" y="235" opacity="0.3">1</text>
      <text x="104" y="255" opacity="0.2">0</text>
      <text x="104" y="275" opacity="0.35">コ</text>
      <text x="104" y="295" opacity="0.25">1</text>

      <!-- Column 4 -->
      <text x="140" y="25" opacity="0.15">0</text>
      <text x="140" y="45" opacity="0.3">ヒ</text>
      <text x="140" y="65" opacity="0.2">1</text>
      <text x="140" y="85" opacity="0.35">0</text>
      <text x="140" y="105" opacity="0.25">ツ</text>
      <text x="140" y="125" opacity="0.15">1</text>
      <text x="140" y="145" opacity="0.3">0</text>
      <text x="140" y="165" opacity="0.2">キ</text>
      <text x="140" y="185" opacity="0.35">1</text>
      <text x="140" y="205" opacity="0.25">0</text>
      <text x="140" y="225" opacity="0.2">1</text>
      <text x="140" y="245" opacity="0.15">セ</text>
      <text x="140" y="265" opacity="0.3">0</text>
      <text x="140" y="285" opacity="0.2">1</text>

      <!-- Column 5 -->
      <text x="176" y="10" opacity="0.25">カ</text>
      <text x="176" y="30" opacity="0.2">1</text>
      <text x="176" y="50" opacity="0.15">0</text>
      <text x="176" y="70" opacity="0.3">ウ</text>
      <text x="176" y="90" opacity="0.35">1</text>
      <text x="176" y="110" opacity="0.2">0</text>
      <text x="176" y="130" opacity="0.25">サ</text>
      <text x="176" y="150" opacity="0.15">1</text>
      <text x="176" y="170" opacity="0.3">0</text>
      <text x="176" y="190" opacity="0.2">1</text>
      <text x="176" y="210" opacity="0.35">エ</text>
      <text x="176" y="230" opacity="0.25">0</text>
      <text x="176" y="250" opacity="0.2">ヌ</text>
      <text x="176" y="270" opacity="0.15">1</text>
      <text x="176" y="290" opacity="0.3">0</text>

      <!-- Column 6 -->
      <text x="212" y="20" opacity="0.3">1</text>
      <text x="212" y="40" opacity="0.25">ワ</text>
      <text x="212" y="60" opacity="0.2">0</text>
      <text x="212" y="80" opacity="0.15">1</text>
      <text x="212" y="100" opacity="0.35">ン</text>
      <text x="212" y="120" opacity="0.2">0</text>
      <text x="212" y="140" opacity="0.3">1</text>
      <text x="212" y="160" opacity="0.25">オ</text>
      <text x="212" y="180" opacity="0.15">0</text>
      <text x="212" y="200" opacity="0.3">1</text>
      <text x="212" y="220" opacity="0.2">0</text>
      <text x="212" y="240" opacity="0.35">ハ</text>
      <text x="212" y="260" opacity="0.25">1</text>
      <text x="212" y="280" opacity="0.2">0</text>

      <!-- Right side columns -->
      <!-- Column R1 -->
      <text x="748" y="15" opacity="0.3">ケ</text>
      <text x="748" y="35" opacity="0.2">0</text>
      <text x="748" y="55" opacity="0.35">1</text>
      <text x="748" y="75" opacity="0.25">フ</text>
      <text x="748" y="95" opacity="0.15">0</text>
      <text x="748" y="115" opacity="0.3">1</text>
      <text x="748" y="135" opacity="0.2">ミ</text>
      <text x="748" y="155" opacity="0.35">0</text>
      <text x="748" y="175" opacity="0.25">1</text>
      <text x="748" y="195" opacity="0.3">テ</text>
      <text x="748" y="215" opacity="0.15">0</text>
      <text x="748" y="235" opacity="0.2">1</text>
      <text x="748" y="255" opacity="0.35">0</text>
      <text x="748" y="275" opacity="0.25">ヤ</text>
      <text x="748" y="295" opacity="0.2">1</text>

      <!-- Column R2 -->
      <text x="784" y="25" opacity="0.25">1</text>
      <text x="784" y="45" opacity="0.35">シ</text>
      <text x="784" y="65" opacity="0.2">0</text>
      <text x="784" y="85" opacity="0.3">ト</text>
      <text x="784" y="105" opacity="0.25">1</text>
      <text x="784" y="125" opacity="0.15">0</text>
      <text x="784" y="145" opacity="0.35">ス</text>
      <text x="784" y="165" opacity="0.2">1</text>
      <text x="784" y="185" opacity="0.3">0</text>
      <text x="784" y="205" opacity="0.25">マ</text>
      <text x="784" y="225" opacity="0.15">1</text>
      <text x="784" y="245" opacity="0.3">0</text>
      <text x="784" y="265" opacity="0.2">ロ</text>
      <text x="784" y="285" opacity="0.35">1</text>

      <!-- Column R3 -->
      <text x="820" y="10" opacity="0.2">ナ</text>
      <text x="820" y="30" opacity="0.3">0</text>
      <text x="820" y="50" opacity="0.25">1</text>
      <text x="820" y="70" opacity="0.15">0</text>
      <text x="820" y="90" opacity="0.35">レ</text>
      <text x="820" y="110" opacity="0.2">1</text>
      <text x="820" y="130" opacity="0.3">0</text>
      <text x="820" y="150" opacity="0.25">1</text>
      <text x="820" y="170" opacity="0.15">ニ</text>
      <text x="820" y="190" opacity="0.35">0</text>
      <text x="820" y="210" opacity="0.2">1</text>
      <text x="820" y="230" opacity="0.3">ホ</text>
      <text x="820" y="250" opacity="0.25">0</text>
      <text x="820" y="270" opacity="0.15">1</text>
      <text x="820" y="290" opacity="0.3">ヘ</text>

      <!-- Column R4 -->
      <text x="856" y="20" opacity="0.35">0</text>
      <text x="856" y="40" opacity="0.2">イ</text>
      <text x="856" y="60" opacity="0.3">1</text>
      <text x="856" y="80" opacity="0.25">0</text>
      <text x="856" y="100" opacity="0.15">ユ</text>
      <text x="856" y="120" opacity="0.35">1</text>
      <text x="856" y="140" opacity="0.2">0</text>
      <text x="856" y="160" opacity="0.3">チ</text>
      <text x="856" y="180" opacity="0.25">1</text>
      <text x="856" y="200" opacity="0.15">0</text>
      <text x="856" y="220" opacity="0.35">モ</text>
      <text x="856" y="240" opacity="0.2">1</text>
      <text x="856" y="260" opacity="0.3">0</text>
      <text x="856" y="280" opacity="0.25">1</text>

      <!-- Column R5 -->
      <text x="892" y="30" opacity="0.25">ノ</text>
      <text x="892" y="50" opacity="0.15">1</text>
      <text x="892" y="70" opacity="0.35">0</text>
      <text x="892" y="90" opacity="0.2">1</text>
      <text x="892" y="110" opacity="0.3">メ</text>
      <text x="892" y="130" opacity="0.25">0</text>
      <text x="892" y="150" opacity="0.15">1</text>
      <text x="892" y="170" opacity="0.35">ル</text>
      <text x="892" y="190" opacity="0.2">0</text>
      <text x="892" y="210" opacity="0.3">1</text>
      <text x="892" y="230" opacity="0.25">ヨ</text>
      <text x="892" y="250" opacity="0.15">0</text>
      <text x="892" y="270" opacity="0.35">1</text>
      <text x="892" y="290" opacity="0.2">0</text>

      <!-- Column R6 -->
      <text x="928" y="15" opacity="0.2">1</text>
      <text x="928" y="35" opacity="0.35">リ</text>
      <text x="928" y="55" opacity="0.25">0</text>
      <text x="928" y="75" opacity="0.3">1</text>
      <text x="928" y="95" opacity="0.15">0</text>
      <text x="928" y="115" opacity="0.2">ウ</text>
      <text x="928" y="135" opacity="0.35">1</text>
      <text x="928" y="155" opacity="0.25">0</text>
      <text x="928" y="175" opacity="0.3">タ</text>
      <text x="928" y="195" opacity="0.15">1</text>
      <text x="928" y="215" opacity="0.2">0</text>
      <text x="928" y="235" opacity="0.35">1</text>
      <text x="928" y="255" opacity="0.3">カ</text>
      <text x="928" y="275" opacity="0.2">0</text>
      <text x="928" y="295" opacity="0.15">1</text>
    </g>

    <!-- Center fade overlay for text readability -->
    <rect x="220" y="0" width="520" height="320" fill="#0a0a0a" opacity="0.85"/>
    <rect x="180" y="0" width="40" height="320" fill="#0a0a0a" opacity="0.5"/>
    <rect x="740" y="0" width="40" height="320" fill="#0a0a0a" opacity="0.5"/>

    <!-- Horizontal accent lines -->
    <line x1="300" y1="115" x2="420" y2="115" stroke="#00ff41" stroke-width="1" opacity="0.3"/>
    <line x1="540" y1="115" x2="660" y2="115" stroke="#00ff41" stroke-width="1" opacity="0.3"/>
    <line x1="300" y1="205" x2="420" y2="205" stroke="#00ff41" stroke-width="1" opacity="0.3"/>
    <line x1="540" y1="205" x2="660" y2="205" stroke="#00ff41" stroke-width="1" opacity="0.3"/>

    <!-- Corner brackets -->
    <g stroke="#00ff41" stroke-width="1.5" fill="none" opacity="0.4">
      <path d="M280,100 L270,100 L270,110"/>
      <path d="M680,100 L690,100 L690,110"/>
      <path d="M280,220 L270,220 L270,210"/>
      <path d="M680,220 L690,220 L690,210"/>
    </g>

    <!-- Main title glow layer -->
    <text x="480" y="168" font-family="'Share Tech Mono', 'Courier New', monospace" font-size="72" font-weight="bold"
          fill="#00ff41" text-anchor="middle" opacity="0.3" filter="url(#softGlow)">
      CodeForge
    </text>

    <!-- Main title -->
    <text x="480" y="168" font-family="'Share Tech Mono', 'Courier New', monospace" font-size="72" font-weight="bold"
          fill="url(#titleGrad)" text-anchor="middle" filter="url(#glow)">
      CodeForge
    </text>

    <!-- Subtitle -->
    <text x="480" y="198" font-family="'Share Tech Mono', 'Courier New', monospace" font-size="14"
          fill="#00ff41" text-anchor="middle" opacity="0.7" letter-spacing="6">
      REMOTE AI CODE TASK RUNNER
    </text>

    <!-- Version indicator -->
    <rect x="434" y="222" width="52" height="18" rx="3" fill="none" stroke="#00ff41" stroke-width="0.8" opacity="0.4"/>
    <text x="460" y="234" font-family="'Share Tech Mono', 'Courier New', monospace" font-size="10"
          fill="#00ff41" text-anchor="middle" opacity="0.5">
      v0.1.0
    </text>

    <!-- Scanline effect -->
    <g opacity="0.03">
      <line x1="0" y1="1" x2="960" y2="1" stroke="white" stroke-width="1"/>
      <line x1="0" y1="3" x2="960" y2="3" stroke="white" stroke-width="1"/>
      <line x1="0" y1="5" x2="960" y2="5" stroke="white" stroke-width="1"/>
      <line x1="0" y1="7" x2="960" y2="7" stroke="white" stroke-width="1"/>
      <line x1="0" y1="9" x2="960" y2="9" stroke="white" stroke-width="1"/>
      <line x1="0" y1="11" x2="960" y2="11" stroke="white" stroke-width="1"/>
      <line x1="0" y1="13" x2="960" y2="13" stroke="white" stroke-width="1"/>
    </g>

    <!-- Border -->
    <rect width="960" height="320" rx="12" ry="12" fill="none" stroke="#00ff41" stroke-width="1" opacity="0.15"/>
  </g>
</svg>
